<svg height="512" viewBox="0 0 60 60" width="512" xmlns="http://www.w3.org/2000/svg"><g id="019---Languages"><path id="Shape" d="m0 7v42c.00440864 3.8641657 3.13583434 6.9955914 7 7h2v2c-.00067494.6946105.35910055 1.3398284.95036342 1.7043725.59126288.3645442 1.32932948.3962027 1.94963658.0836275l2.1-1.053 2.105 1.053c.6198891.3101928 1.3561942.2772933 1.9459483-.0869486.5897541-.364242.9488549-1.0078833.9490517-1.7010514v-2h24c1.6568542 0 3-1.3431458 3-3v-3h12c1.1045695 0 2-.8954305 2-2v-10c0-1.1045695-.8954305-2-2-2h-12v-2h12c1.1045695 0 2-.8954305 2-2v-10c0-1.1045695-.8954305-2-2-2h-12v-2h12c1.1045695 0 2-.8954305 2-2v-10c0-1.1045695-.8954305-2-2-2h-12v-1c0-1.65685425-1.3431458-3-3-3h-36c-3.86416566.00440864-6.99559136 3.13583434-7 7zm2 0c.00261225-1.98572356 1.18005197-3.78171161 3-4.576v39.865c-1.14146312.3355123-2.17555999.9632091-3 1.821zm12.9 49.946c-.5638101-.2800314-1.2261899-.2800314-1.79 0l-2.11 1.054v-8h6v8zm4.1-6.946h4c.5522847 0 1-.4477153 1-1s-.4477153-1-1-1h-17c-.55228475 0-1 .4477153-1 1s.44771525 1 1 1h3v4h-2c-2.76142375 0-5-2.2385763-5-5s2.23857625-5 5-5h32.23c-1.6395881 3.1317146-1.6395881 6.8682854 0 10h-20.23zm26.816-8h12.184v2h-15c1.2667854-.0052514 2.3937454-.8056491 2.816-2zm-1.816 11c0 .5522847-.4477153 1-1 1h-1.461c-.791802-1.2031707-1.2983487-2.5712913-1.481-4h3.942zm-3.942-5c.0813598-.6832203.2428024-1.3544992.481-2h17.461v2zm17.942-10v2h-12v-2zm0-16v10h-12v-10zm-8-6v-10h3v10zm8 0h-3v-10h3zm-10-10v10h-2v-10zm-4-3v38c0 .5522847-.4477153 1-1 1h-36v-40h36c.5522847 0 1 .44771525 1 1z"/><path id="Shape" d="m52 30c1.6568542 0 3-1.3431458 3-3s-1.3431458-3-3-3-3 1.3431458-3 3 1.3431458 3 3 3zm0-4c.5522847 0 1 .4477153 1 1s-.4477153 1-1 1-1-.4477153-1-1 .4477153-1 1-1z"/><path id="Shape" d="m17.654 30.675c.0199309.0138297.0406309.0265168.062.038 6.4730071 4.1292817 15.0435945 2.4895651 19.5352421-3.7374639 4.4916475-6.227029 3.343284-14.8771678-2.6175055-19.71656625-5.9607895-4.83939841-14.6623338-4.18612455-19.8337366 1.48903015-.0504457.04474712-.0960312.09469005-.136.149-2.8140692 3.1571309-4.1035333 7.388735-3.5282784 11.5786686.5752549 4.1899335 2.9574609 7.9174375 6.5182784 10.1993314zm-4.4-14.7c.5221253.7407349 1.2422712 1.3194855 2.078 1.67 1.63.676 3.625.469 3.537 1.551-.1047003.7472285-.3158425 1.4756183-.627 2.163-.914 2.337-.863 3.046-.587 4.634.2092518.7380778.2233789 1.5178268.041 2.263-3.6768722-2.9309905-5.3927631-7.6808148-4.438-12.285zm11.1 14.971c1.8794309-.972847 4.0220438-1.3150479 6.111-.976-1.9210845.8375824-4.0238381 1.1720957-6.11.972zm8.687-2.5c-2.3506923-.6768143-4.8332971-.7551906-7.222-.228-1.5282755.4027599-2.9447578 1.1482769-4.142 2.18-.7622539-.2458142-1.4990031-.5646256-2.2-.952.4031-1.2277426.457109-2.5433478.156-3.8-.22-1.275-.287-1.609.479-3.564.3856144-.8655126.6404-1.7835495.756-2.724.1124021-1.1643523-.5556903-2.2635903-1.641-2.7-2.074-.908-4.2-.127-5.044-3.423.4563521-.9846478 1.0389111-1.9057164 1.733-2.74 1.985668-.0102085 3.9632475-.2538818 5.892-.726 2.1658726-.43162447 4.0449819-1.76620674 5.166-3.669.950063.1136881 1.8836728.33752627 2.782.667-.863379.70799463-1.8255332 1.28609566-2.856 1.716-1.5299243.62193027-2.678206 1.9272673-3.1 3.524-.425 2.378 1.64 3.964 3.737 4.431 5.177 1.149 1.3 5.258 1.242 8.011-.0299895.8038318.2811048 1.5829055.8565226 2.1449902.5754179.5620848 1.3615693.8548325 2.1644774.8060098 1.3701886-.1014983 2.6762681-.6208586 3.742-1.488-.7091891.9584515-1.5509304 1.8113038-2.5 2.533zm-14.824-20.085c1.8541193-1.33903466 4.0424494-2.13919586 6.323-2.312-1.527 1.631-3.931 2.063-6.323 2.312zm18.959 14.563c-2.556.769-3.468 2.245-5.135 2.459-.3602989.0698261-.7333262-.0158939-1.027-.236-.975-.876 1.213-3.466 1.213-6.2-.007-2.236-1.56-3.862-4.259-4.461-.1-.022-2.481-.571-2.2-2.125.3122332-.9446401 1.0315313-1.6995362 1.96-2.057 1.4900497-.60672468 2.8451358-1.5026381 3.987-2.636 5.3337519 3.0425446 7.6523324 9.5197949 5.461 15.256z"/><path id="Shape" d="m34 35h-17c-.5522847 0-1 .4477153-1 1s.4477153 1 1 1h17c.5522847 0 1-.4477153 1-1s-.4477153-1-1-1z"/></g></svg>